<svg xmlns="http://www.w3.org/2000/svg" width="520" height="520" viewBox="0 0 520 520" fill="none">
  <g stroke="#79a985" stroke-width="2.2" stroke-linecap="round" stroke-linejoin="round" opacity="0.6">
    <path d="M52 68c9-16 30-18 43-8 12 8 15 25 6 37-8 12-23 17-35 11-15-8-21-26-14-40z"/>
    <path d="M278 70c16-14 39-7 45 10 7 17-3 37-22 42-19 6-38-6-41-25-2-10 1-20 9-27z"/>
    <path d="M433 62l9 18 19 2-14 13 4 19-18-9-18 9 3-19-14-13 20-2z"/>
    <path d="M109 139l26 51h-53z"/>
    <path d="M89 138c0-14 11-25 25-25s25 11 25 25"/>
    <path d="M229 116c-10 0-18 8-18 18 0 14 18 25 18 25s18-11 18-25c0-10-8-18-18-18z"/>
    <path d="M330 129c14-17 42-11 49 10 6 21-11 42-32 40-21-2-35-25-24-44 2-2 4-4 7-6z"/>
    <path d="M408 144c0-27 22-49 49-49"/>
    <path d="M408 144h98"/>
    <path d="M457 95v66"/>
    <path d="M65 239c6-11 19-17 31-14 5-9 16-14 27-12 11 3 19 12 20 23 10 4 16 14 14 25-2 11-11 20-23 21H88c-16 0-30-13-30-30 0-4 1-9 3-13 1 0 2 0 4 0z"/>
    <path d="M184 233h44c10 0 18 8 18 18v20c0 10-8 18-18 18h-44c-10 0-18-8-18-18v-20c0-10 8-18 18-18z"/>
    <path d="M178 260h12"/>
    <path d="M222 251v18"/>
    <path d="M214 260h16"/>
    <circle cx="203" cy="251" r="3"/>
    <circle cx="203" cy="269" r="3"/>
    <path d="M297 246c17-11 40 1 41 21 2 20-20 35-38 26-6-3-11-8-14-14"/>
    <path d="M297 246c-8 13-7 30 3 42"/>
    <path d="M287 290c12-7 22-2 28 10"/>
    <path d="M403 234c0-14 12-26 26-26s26 12 26 26v55h-52z"/>
    <path d="M395 288h68"/>
    <path d="M49 352c0-10 8-18 18-18h44c10 0 18 8 18 18v30c0 10-8 18-18 18H67c-10 0-18-8-18-18z"/>
    <path d="M58 350h62"/>
    <path d="M75 332l28-15"/>
    <path d="M178 349l17-37 17 37"/>
    <path d="M184 337h22"/>
    <path d="M177 387h40"/>
    <path d="M271 334c8-14 30-14 38 0 3 4 4 9 3 14h-44c-1-5 0-10 3-14z"/>
    <path d="M266 350h50"/>
    <path d="M420 338c-11-2-18-13-15-24 2-11 13-18 24-15 11 2 18 13 15 24"/>
    <path d="M421 297l33 48"/>
    <path d="M355 422l9 18 20 2-14 13 4 19-19-9-18 9 3-19-14-13 20-2z"/>
    <path d="M152 449c-10 0-18 8-18 18 0 14 18 25 18 25s18-11 18-25c0-10-8-18-18-18z"/>
    <path d="M228 433c13-11 33-9 43 4 11 13 9 33-4 43-13 11-33 9-43-4-10-13-9-32 4-43z"/>
    <path d="M224 457h50"/>
    <path d="M249 432v50"/>
    <path d="M435 430c0 17-14 31-31 31s-31-14-31-31 14-31 31-31 31 14 31 31z"/>
    <path d="M392 430h24l14 14"/>
    <circle cx="76" cy="430" r="4.5"/>
    <circle cx="315" cy="195" r="4"/>
    <circle cx="474" cy="198" r="3.8"/>
    <circle cx="143" cy="201" r="3.8"/>
    <circle cx="476" cy="322" r="3.8"/>
    <circle cx="31" cy="287" r="3.8"/>
    <circle cx="286" cy="418" r="3.8"/>
    <circle cx="19" cy="182" r="3.8"/>
  </g>
</svg>
